# xmcd
#
# Track frame offsets: 
#        150
#        17265
#        37918
#        57633
#        88080
#        94643
#        114617
#        141073
#        158300
#
# Disc length: 2356 seconds
#
# Revision: 2
# Processed by: cddbd v1.5.2PL0 Copyright (c) Steve Scherf et al.
# Submitted via: ExactAudioCopy v1.0b3
#
DISCID=62093209
DTITLE=Lonely Kamel - Lonely Kamel
DYEAR=2008
DGENRE=Hard Rock
TTITLE0=In My Lane
TTITLE1=I'm Your God
TTITLE2=Dark Lord
TTITLE3=Don't Piss On The Lizard
TTITLE4=Madras
TTITLE5=Dam You're Hot
TTITLE6=Spacerider
TTITLE7=Black Suits And Guns
TTITLE8=Shake It Out With The Devil
EXTD=
EXTT0=
EXTT1=
EXTT2=
EXTT3=
EXTT4=
EXTT5=
EXTT6=
EXTT7=
EXTT8=
PLAYORDER=
